<svg width="64" height="83" viewBox="0 0 64 83" fill="none" xmlns="http://www.w3.org/2000/svg">
<g clip-path="url(#clip0_1_3056)">
<path d="M63.5 32C63.5 49.397 49.397 63.5 32 63.5C14.603 63.5 0.5 49.397 0.5 32C0.5 14.603 14.603 0.5 32 0.5C49.397 0.5 63.5 14.603 63.5 32Z" stroke="#C7C7CC"/>
<path d="M26.6487 79H25.5567L21.1647 72.34V79H20.0727V70.624H21.1647L25.5567 77.272V70.624H26.6487V79ZM34.5002 75.46C34.5002 75.668 34.4882 75.888 34.4642 76.12H29.2082C29.2482 76.768 29.4682 77.276 29.8682 77.644C30.2762 78.004 30.7682 78.184 31.3442 78.184C31.8162 78.184 32.2082 78.076 32.5202 77.86C32.8402 77.636 33.0642 77.34 33.1922 76.972H34.3682C34.1922 77.604 33.8402 78.12 33.3122 78.52C32.7842 78.912 32.1282 79.108 31.3442 79.108C30.7202 79.108 30.1602 78.968 29.6642 78.688C29.1762 78.408 28.7922 78.012 28.5122 77.5C28.2322 76.98 28.0922 76.38 28.0922 75.7C28.0922 75.02 28.2282 74.424 28.5002 73.912C28.7722 73.4 29.1522 73.008 29.6402 72.736C30.1362 72.456 30.7042 72.316 31.3442 72.316C31.9682 72.316 32.5202 72.452 33.0002 72.724C33.4802 72.996 33.8482 73.372 34.1042 73.852C34.3682 74.324 34.5002 74.86 34.5002 75.46ZM33.3722 75.232C33.3722 74.816 33.2802 74.46 33.0962 74.164C32.9122 73.86 32.6602 73.632 32.3402 73.48C32.0282 73.32 31.6802 73.24 31.2962 73.24C30.7442 73.24 30.2722 73.416 29.8802 73.768C29.4962 74.12 29.2762 74.608 29.2202 75.232H33.3722ZM44.6916 72.424L42.6396 79H41.5116L39.9276 73.78L38.3436 79H37.2156L35.1516 72.424H36.2676L37.7796 77.944L39.4116 72.424H40.5276L42.1236 77.956L43.6116 72.424H44.6916Z" fill="#262626"/>
<path d="M33 23V31H41V33H33V41H31V33H23V31H31V23H33Z" fill="#262626"/>
</g>
<defs>
<clipPath id="clip0_1_3056">
<rect width="64" height="83" fill="white"/>
</clipPath>
</defs>
</svg>
