<svg width="444" height="425" viewBox="0 0 444 425" fill="none" xmlns="http://www.w3.org/2000/svg">
<path fill-rule="evenodd" clip-rule="evenodd" d="M155.379 247.878C149.848 247.681 142.72 247.248 139.48 246.594C134.534 245.596 129.864 244.082 125.98 242.102C121.416 239.776 117.326 236.809 113.795 233.283C110.255 229.75 107.276 225.656 104.941 221.086C102.967 217.223 101.453 212.581 100.451 207.663C99.7834 204.391 99.3422 197.209 99.1422 191.643C99.0611 189.368 99.0195 186.423 99.0195 185.066L99 62.9536C99 61.6012 99.0412 58.656 99.1219 56.3783C99.3185 50.848 99.7512 43.7198 100.406 40.4799C101.404 35.5347 102.918 30.8639 104.898 26.9798C107.224 22.4159 110.191 18.3268 113.717 14.7948C117.25 11.2555 121.344 8.27636 125.914 5.94093C129.777 3.96727 134.419 2.45348 139.336 1.45052C142.609 0.783433 149.791 0.342248 155.357 0.142674C157.631 0.061146 160.576 0.0195327 161.934 0.0195327L284.046 0C285.399 0 288.344 0.040764 290.621 0.121867C296.152 0.318893 303.28 0.751161 306.52 1.40551C311.465 2.40423 316.136 3.91886 320.02 5.89761C324.583 8.22371 328.673 11.191 332.205 14.7166C335.744 18.25 338.723 22.3433 341.059 26.9136C343.032 30.7772 344.547 35.4188 345.549 40.3364C346.217 43.609 346.657 50.7911 346.857 56.3571C346.939 58.6318 346.98 61.5761 346.98 62.9341L347 185.046C347 186.399 346.959 189.344 346.878 191.621C346.681 197.152 346.248 204.28 345.594 207.52C344.596 212.465 343.081 217.136 341.102 221.02C338.776 225.584 335.809 229.673 332.283 233.205C328.75 236.744 324.656 239.724 320.086 242.059C316.222 244.033 311.581 245.547 306.663 246.549C303.391 247.216 296.209 247.657 290.643 247.857C288.368 247.939 285.423 247.98 284.066 247.98L161.954 248C160.601 248 157.656 247.959 155.379 247.878Z" fill="url(#paint0_radial_1_8)"/>
<mask id="mask0_1_8" style="mask-type:luminance" maskUnits="userSpaceOnUse" x="99" y="0" width="248" height="248">
<path fill-rule="evenodd" clip-rule="evenodd" d="M155.379 247.878C149.848 247.681 142.72 247.248 139.48 246.594C134.534 245.596 129.864 244.082 125.98 242.102C121.416 239.776 117.326 236.809 113.795 233.283C110.255 229.75 107.276 225.656 104.941 221.086C102.967 217.223 101.453 212.581 100.451 207.663C99.7834 204.391 99.3422 197.209 99.1422 191.643C99.0611 189.368 99.0195 186.423 99.0195 185.066L99 62.9536C99 61.6012 99.0412 58.656 99.1219 56.3783C99.3185 50.848 99.7512 43.7198 100.406 40.4799C101.404 35.5347 102.918 30.8639 104.898 26.9798C107.224 22.4159 110.191 18.3268 113.717 14.7948C117.25 11.2555 121.344 8.27636 125.914 5.94093C129.777 3.96727 134.419 2.45348 139.336 1.45052C142.609 0.783433 149.791 0.342248 155.357 0.142674C157.631 0.061146 160.576 0.0195327 161.934 0.0195327L284.046 0C285.399 0 288.344 0.040764 290.621 0.121867C296.152 0.318893 303.28 0.751161 306.52 1.40551C311.465 2.40423 316.136 3.91886 320.02 5.89761C324.583 8.22371 328.673 11.191 332.205 14.7166C335.744 18.25 338.723 22.3433 341.059 26.9136C343.032 30.7772 344.547 35.4188 345.549 40.3364C346.217 43.609 346.657 50.7911 346.857 56.3571C346.939 58.6318 346.98 61.5761 346.98 62.9341L347 185.046C347 186.399 346.959 189.344 346.878 191.621C346.681 197.152 346.248 204.28 345.594 207.52C344.596 212.465 343.081 217.136 341.102 221.02C338.776 225.584 335.809 229.673 332.283 233.205C328.75 236.744 324.656 239.724 320.086 242.059C316.222 244.033 311.581 245.547 306.663 246.549C303.391 247.216 296.209 247.657 290.643 247.857C288.368 247.939 285.423 247.98 284.066 247.98L161.954 248C160.601 248 157.656 247.959 155.379 247.878Z" fill="white"/>
</mask>
<g mask="url(#mask0_1_8)">
<path fill-rule="evenodd" clip-rule="evenodd" d="M223.5 31.9028C198.599 31.9029 195.472 32.0125 185.689 32.4602C175.923 32.9099 169.257 34.4647 163.424 36.746C157.39 39.1022 152.272 42.2541 147.173 47.3836C142.07 52.5111 138.936 57.6579 136.585 63.7234C134.311 69.5909 132.763 76.2963 132.323 86.1133C131.886 95.9533 131.771 99.0994 131.771 124.153C131.771 149.207 131.882 152.341 132.325 162.181C132.774 172.002 134.32 178.706 136.587 184.571C138.932 190.638 142.066 195.785 147.167 200.913C152.264 206.044 157.382 209.204 163.412 211.56C169.249 213.841 175.917 215.396 185.681 215.846C195.466 216.294 198.591 216.403 223.503 216.403C248.419 216.403 251.536 216.294 261.321 215.846C271.087 215.396 277.761 213.841 283.598 211.56C289.629 209.204 294.74 206.044 299.837 200.913C304.939 195.785 308.074 190.638 310.425 184.573C312.68 178.706 314.228 172 314.686 162.183C315.126 152.343 315.241 149.207 315.241 124.153C315.241 99.0994 315.126 95.9552 314.686 86.1152C314.228 76.2944 312.68 69.5909 310.425 63.7253C308.074 57.6579 304.939 52.5111 299.837 47.3836C294.734 42.2521 289.631 39.1003 283.592 36.746C277.744 34.4647 271.074 32.9099 261.308 32.4602C251.524 32.0125 248.408 31.9029 223.5 31.9028ZM215.285 48.5271C216.883 48.5245 218.602 48.5253 220.457 48.5261H220.457C221.437 48.5266 222.456 48.5271 223.514 48.5271C248.008 48.5271 250.911 48.6155 260.583 49.0575C269.528 49.4688 274.382 50.9717 277.616 52.2344C281.897 53.9064 284.949 55.9051 288.158 59.1339C291.368 62.3627 293.356 65.4377 295.022 69.7427C296.278 72.9906 297.775 77.8722 298.182 86.8666C298.621 96.5913 298.717 99.5126 298.717 124.132C298.717 148.751 298.621 151.672 298.182 161.397C297.773 170.391 296.278 175.273 295.022 178.521C293.36 182.826 291.368 185.891 288.158 189.118C284.947 192.347 281.898 194.346 277.616 196.018C274.386 197.286 269.528 198.785 260.583 199.197C250.913 199.639 248.008 199.735 223.514 199.735C199.019 199.735 196.116 199.639 186.446 199.197C177.501 198.781 172.647 197.279 169.411 196.016C165.13 194.344 162.072 192.345 158.862 189.116C155.651 185.888 153.663 182.82 151.997 178.513C150.741 175.265 149.245 170.384 148.838 161.389C148.398 151.665 148.31 148.743 148.31 124.109C148.31 99.4741 148.398 96.5683 148.838 86.8435C149.247 77.8492 150.741 72.9676 151.997 69.7158C153.66 65.4108 155.651 62.3358 158.862 59.107C162.072 55.8782 165.13 53.8795 169.411 52.2036C172.645 50.9352 177.501 49.4361 186.446 49.0229C194.908 48.6385 198.188 48.5232 215.285 48.504V48.5271ZM261.474 74.9108C261.474 68.7973 266.405 63.8446 272.482 63.8446V63.8408C278.56 63.8408 283.491 68.7992 283.491 74.9108C283.491 81.0224 278.56 85.9808 272.482 85.9808C266.405 85.9808 261.474 81.0224 261.474 74.9108ZM223.513 76.7787C197.497 76.7792 176.404 97.9908 176.404 124.153C176.404 150.316 197.498 171.518 223.514 171.518C249.531 171.518 270.617 150.316 270.617 124.153C270.617 97.9908 249.53 76.7792 223.513 76.7787ZM223.513 76.7787C223.514 76.7787 223.514 76.7787 223.514 76.7787H223.512C223.513 76.7787 223.513 76.7787 223.513 76.7787ZM254.093 124.153C254.093 107.169 240.401 93.403 223.514 93.403C206.625 93.403 192.936 107.169 192.936 124.153C192.936 141.135 206.625 154.903 223.514 154.903C240.401 154.903 254.093 141.135 254.093 124.153Z" fill="white"/>
</g>
<path d="M16.5114 305.636H5.44036V358H16.5114V305.636ZM35.9775 335.295C36.0031 330.233 39.0202 327.267 43.4179 327.267C47.79 327.267 50.4236 330.131 50.398 334.938V358H61.29V332.994C61.29 323.841 55.9207 318.216 47.7389 318.216C41.9094 318.216 37.6906 321.08 35.9264 325.656H35.4662V318.727H25.0855V358H35.9775V335.295ZM102.221 329.926C101.249 322.69 95.4196 318.216 85.4991 318.216C75.4508 318.216 68.8286 322.869 68.8542 330.438C68.8286 336.318 72.536 340.128 80.2065 341.662L87.0076 343.017C90.4338 343.707 91.9934 344.96 92.0446 346.929C91.9934 349.256 89.4622 350.918 85.6525 350.918C81.7661 350.918 79.1838 349.256 78.519 346.06L67.8059 346.622C68.8286 354.139 75.2207 358.767 85.6269 358.767C95.8031 358.767 103.09 353.577 103.116 345.83C103.09 340.153 99.3826 336.753 91.7633 335.193L84.6554 333.761C80.9991 332.969 79.644 331.716 79.6696 329.824C79.644 327.472 82.3031 325.938 85.6781 325.938C89.4622 325.938 91.7122 328.009 92.2491 330.54L102.221 329.926ZM130.533 318.727H123.144V309.318H112.252V318.727H106.883V326.909H112.252V347.364C112.201 355.06 117.443 358.869 125.343 358.537C128.156 358.435 130.15 357.872 131.249 357.514L129.536 349.409C128.999 349.511 127.849 349.767 126.826 349.767C124.653 349.767 123.144 348.949 123.144 345.932V326.909H130.533V318.727ZM148.497 358.741C154.301 358.741 158.06 356.21 159.978 352.554H160.284V358H170.614V331.511C170.614 322.153 162.688 318.216 153.944 318.216C144.534 318.216 138.347 322.716 136.838 329.875L146.912 330.693C147.654 328.085 149.98 326.168 153.892 326.168C157.6 326.168 159.722 328.034 159.722 331.256V331.409C159.722 333.94 157.037 334.273 150.211 334.938C142.438 335.653 135.458 338.261 135.458 347.031C135.458 354.804 141.006 358.741 148.497 358.741ZM151.617 351.224C148.267 351.224 145.864 349.665 145.864 346.673C145.864 343.605 148.395 342.097 152.23 341.56C154.608 341.227 158.495 340.665 159.799 339.795V343.963C159.799 348.08 156.398 351.224 151.617 351.224ZM196.427 373.29C207.652 373.29 215.629 368.176 215.629 358.384V318.727H204.814V325.324H204.405C202.947 322.128 199.751 318.216 193.18 318.216C184.564 318.216 177.277 324.915 177.277 338.287C177.277 351.352 184.359 357.438 193.206 357.438C199.47 357.438 202.973 354.293 204.405 351.045H204.865V358.23C204.865 363.369 201.413 365.466 196.683 365.466C191.876 365.466 189.447 363.369 188.552 361.247L178.479 362.602C179.783 368.534 185.842 373.29 196.427 373.29ZM196.658 349.256C191.314 349.256 188.399 345.011 188.399 338.236C188.399 331.562 191.263 326.884 196.658 326.884C201.95 326.884 204.916 331.358 204.916 338.236C204.916 345.165 201.899 349.256 196.658 349.256ZM223.967 358H234.859V335.781C234.859 330.949 238.387 327.625 243.194 327.625C244.703 327.625 246.774 327.881 247.796 328.213V318.548C246.825 318.318 245.47 318.165 244.37 318.165C239.972 318.165 236.367 320.722 234.936 325.58H234.526V318.727H223.967V358ZM263.172 358.741C268.976 358.741 272.734 356.21 274.652 352.554H274.958V358H285.288V331.511C285.288 322.153 277.362 318.216 268.618 318.216C259.208 318.216 253.021 322.716 251.512 329.875L261.586 330.693C262.328 328.085 264.655 326.168 268.566 326.168C272.274 326.168 274.396 328.034 274.396 331.256V331.409C274.396 333.94 271.711 334.273 264.885 334.938C257.112 335.653 250.132 338.261 250.132 347.031C250.132 354.804 255.68 358.741 263.172 358.741ZM266.291 351.224C262.941 351.224 260.538 349.665 260.538 346.673C260.538 343.605 263.069 342.097 266.905 341.56C269.282 341.227 273.169 340.665 274.473 339.795V343.963C274.473 348.08 271.072 351.224 266.291 351.224ZM293.408 358H304.3V334.426C304.3 330.08 307.062 327.19 310.692 327.19C314.272 327.19 316.675 329.645 316.675 333.506V358H327.235V334.017C327.235 329.952 329.562 327.19 333.525 327.19C337.002 327.19 339.61 329.364 339.61 333.736V358H350.476V331.588C350.476 323.074 345.414 318.216 338.101 318.216C332.349 318.216 327.874 321.156 326.263 325.656H325.854C324.601 321.105 320.587 318.216 315.192 318.216C309.9 318.216 305.886 321.028 304.249 325.656H303.789V318.727H293.408V358ZM407.709 305.636V339.872C407.709 345.472 403.184 348.872 396.996 348.872C390.885 348.872 386.36 345.472 386.36 339.872V305.636H375.289V340.256C375.289 352.119 384.289 358.741 396.996 358.741C409.652 358.741 418.704 352.119 418.704 340.256V305.636H407.709ZM438.553 305.636H427.482V358H438.553V305.636Z" fill="#3B3B3B"/>
<path d="M147.466 421.308C152.288 421.308 155.799 418.545 155.788 414.736C155.799 411.918 154.038 409.892 150.879 409.441V409.265C153.322 408.737 154.963 406.92 154.952 404.388C154.963 400.953 152.034 398.146 147.532 398.146C143.151 398.146 139.76 400.755 139.672 404.531H143.602C143.668 402.638 145.429 401.46 147.51 401.46C149.613 401.46 151.011 402.737 151 404.63C151.011 406.601 149.381 407.911 147.048 407.911H145.055V411.059H147.048C149.899 411.059 151.594 412.49 151.583 414.527C151.594 416.52 149.866 417.885 147.455 417.885C145.187 417.885 143.437 416.707 143.338 414.868H139.199C139.309 418.677 142.71 421.308 147.466 421.308ZM167.823 421.308C172.689 421.341 175.959 417.995 175.948 413.536C175.959 409.276 172.92 406.194 168.968 406.194C166.546 406.194 164.411 407.371 163.332 409.309H163.178C163.189 404.498 164.928 401.614 168.055 401.614C169.992 401.614 171.302 402.748 171.72 404.531H175.739C175.254 400.832 172.315 398.08 168.055 398.08C162.638 398.08 159.215 402.594 159.215 410.366C159.215 418.633 163.497 421.286 167.823 421.308ZM167.801 418.006C165.391 418.006 163.629 416.013 163.618 413.657C163.64 411.29 165.468 409.309 167.856 409.309C170.245 409.309 171.996 411.202 171.985 413.624C171.996 416.09 170.19 418.006 167.801 418.006ZM199.831 404.652H203.761C203.684 400.843 200.436 398.146 195.636 398.146C190.903 398.146 187.347 400.81 187.358 404.795C187.358 408.032 189.659 409.892 193.369 410.85L195.934 411.511C198.367 412.127 199.974 412.887 199.985 414.637C199.974 416.564 198.146 417.852 195.482 417.852C192.928 417.852 190.947 416.707 190.782 414.34H186.764C186.929 418.82 190.264 421.341 195.515 421.341C200.921 421.341 204.058 418.644 204.069 414.67C204.058 410.762 200.832 408.979 197.442 408.175L195.328 407.647C193.479 407.206 191.475 406.425 191.497 404.542C191.508 402.847 193.027 401.603 195.581 401.603C198.014 401.603 199.622 402.737 199.831 404.652ZM214.91 421.33C219.159 421.33 221.867 418.809 222.153 415.221H218.344C218.003 417.037 216.693 418.083 214.943 418.083C212.455 418.083 210.847 416.002 210.847 412.545C210.847 409.133 212.488 407.085 214.943 407.085C216.858 407.085 218.036 408.318 218.344 409.947H222.153C221.878 406.282 219.016 403.871 214.888 403.871C209.934 403.871 206.807 407.449 206.807 412.612C206.807 417.73 209.857 421.33 214.91 421.33ZM225.426 421H229.411V411.059C229.411 408.913 231.029 407.393 233.22 407.393C233.891 407.393 234.728 407.515 235.069 407.625V403.959C234.706 403.893 234.078 403.849 233.638 403.849C231.7 403.849 230.082 404.95 229.466 406.909H229.29V404.091H225.426V421ZM244.506 421.33C248.447 421.33 251.155 419.404 251.86 416.464L248.139 416.046C247.599 417.477 246.278 418.226 244.561 418.226C241.985 418.226 240.279 416.531 240.246 413.635H252.025V412.413C252.025 406.48 248.458 403.871 244.297 403.871C239.453 403.871 236.294 407.426 236.294 412.645C236.294 417.951 239.409 421.33 244.506 421.33ZM240.257 410.949C240.378 408.792 241.974 406.975 244.352 406.975C246.642 406.975 248.183 408.648 248.205 410.949H240.257ZM262.882 421.33C266.823 421.33 269.531 419.404 270.236 416.464L266.515 416.046C265.975 417.477 264.654 418.226 262.937 418.226C260.361 418.226 258.655 416.531 258.622 413.635H270.401V412.413C270.401 406.48 266.834 403.871 262.673 403.871C257.829 403.871 254.67 407.426 254.67 412.645C254.67 417.951 257.785 421.33 262.882 421.33ZM258.633 410.949C258.754 408.792 260.35 406.975 262.728 406.975C265.018 406.975 266.559 408.648 266.581 410.949H258.633ZM277.757 411.092C277.757 408.648 279.232 407.239 281.335 407.239C283.394 407.239 284.627 408.593 284.627 410.85V421H288.612V410.234C288.623 406.183 286.311 403.871 282.821 403.871C280.289 403.871 278.55 405.082 277.779 406.964H277.581V404.091H273.772V421H277.757V411.092ZM306.027 408.56C305.477 405.698 303.187 403.871 299.224 403.871C295.151 403.871 292.377 405.874 292.388 409.001C292.377 411.467 293.896 413.096 297.143 413.767L300.028 414.373C301.58 414.714 302.306 415.342 302.306 416.299C302.306 417.455 301.051 418.325 299.158 418.325C297.33 418.325 296.142 417.532 295.8 416.013L291.914 416.387C292.41 419.492 295.019 421.33 299.169 421.33C303.396 421.33 306.379 419.14 306.39 415.936C306.379 413.525 304.827 412.05 301.635 411.357L298.751 410.74C297.033 410.355 296.351 409.76 296.362 408.781C296.351 407.636 297.617 406.843 299.279 406.843C301.117 406.843 302.086 407.845 302.394 408.957L306.027 408.56Z" fill="black" fill-opacity="0.3"/>
<defs>
<radialGradient id="paint0_radial_1_8" cx="0" cy="0" r="1" gradientUnits="userSpaceOnUse" gradientTransform="translate(164.875 267.101) rotate(-90) scale(245.786 245.786)">
<stop stop-color="#FFDD55"/>
<stop offset="0.1" stop-color="#FFDD55"/>
<stop offset="0.5" stop-color="#FF543E"/>
<stop offset="1" stop-color="#C837AB"/>
</radialGradient>
</defs>
</svg>
